<svg xmlns="http://www.w3.org/2000/svg" viewBox="0 0 1680 1040" width="1680" height="1040" font-family="ui-monospace, 'Space Mono', monospace">
  <defs>
    <style>
      .mono{font-family:ui-monospace,'Space Mono',monospace;}
      text{fill:#3a3a42;}
    </style>

    <path id="helmetPath" d="M0,-52 C18,-52 33,-40 36,-20 C38,-4 35,12 29,24 C23,36 13,46 0,50 C-13,46 -23,36 -29,24 C-35,12 -38,-4 -36,-20 C-33,-40 -18,-52 0,-52 Z"/>
    <g id="helmetSeam" fill="none">
      <path d="M0,-48 L0,30"/>
      <path d="M-30,-18 Q0,-10 30,-18"/>
    </g>
    <g id="helmetSlits">
      <rect x="-19" y="-3.2" width="15" height="2.2"/>
      <rect x="-20" y="-5.4" width="1.2" height="6"/>
      <rect x="-5.2" y="-5.4" width="1.2" height="6"/>
      <rect x="4" y="-3.2" width="15" height="2.2"/>
      <rect x="18.8" y="-5.4" width="1.2" height="6"/>
      <rect x="4" y="-5.4" width="1.2" height="6"/>
    </g>
    <!-- DEEPER faceted porcelain mask PROFILE (side): flat angled face plane (+x), deep rounded occiput -->
    <path id="helmetProfile" d="M-6,-52 C8,-54 22,-48 30,-34 L34,-18 L33,2 L26,22 L16,40 L4,50 C-8,49 -18,42 -26,28 C-36,12 -42,-12 -36,-34 C-30,-48 -18,-52 -6,-52 Z"/>

    <!-- ===== V0.5 BODY (source of truth) at cx=430; reused for front/back ===== -->
    <g id="frontBody" fill="#15151c">
      <polygon points="372,512 422,520 418,668 380,672"/>
      <polygon points="382,680 418,676 412,816 392,818"/>
      <polygon points="488,512 438,520 442,668 480,672"/>
      <polygon points="478,680 442,676 448,816 468,818"/>
      <path d="M382,814 L416,814 L416,834 L426,847 L372,847 L372,834 Z"/>
      <path d="M478,814 L444,814 L444,834 L434,847 L488,847 L488,834 Z"/>
      <path d="M344,348 L329,372 L325,414 L326,450 L331,456 L332,512 L341,548 L350,561 L360,560 L361,549 L355,510 L352,456 L347,450 L344,408 L343,368 Z"/>
      <path d="M516,348 L531,372 L535,414 L534,450 L529,456 L528,512 L519,548 L510,561 L500,560 L499,549 L505,510 L508,456 L513,450 L516,408 L517,368 Z"/>
      <path d="M400,302 C376,306 356,320 346,348 C350,392 352,432 351,470 C350,492 352,506 360,518 L430,521 L500,518 C508,506 510,492 509,470 C508,432 510,392 514,348 C504,320 484,306 460,302 Z"/>
      <path d="M384,308 L394,266 L414,248 Q430,243 446,248 L466,266 L476,308 L456,320 Q430,326 404,320 Z"/>
      <use href="#helmetPath" transform="translate(430,214) scale(0.92)"/>
    </g>
    <g id="frontDetail" fill="none" stroke="#fbfaf8" stroke-width="1.3" stroke-linecap="round">
      <path d="M356,332 Q430,322 504,332"/>
      <path d="M360,400 Q430,418 500,400"/>
      <path d="M430,360 L430,400"/>
      <path d="M364,440 Q430,446 496,440"/>
      <path d="M372,478 Q430,483 488,478"/>
      <path d="M398,506 L462,506"/>
      <path d="M337,402 L341,452 L341,510"/>
      <path d="M523,402 L519,452 L519,510"/>
      <path d="M404,300 Q430,308 456,300"/>
      <use href="#helmetSeam" transform="translate(430,214) scale(0.92)" stroke="#fbfaf8" stroke-width="1.1" stroke-opacity="0.3"/>
      <use href="#helmetSlits" transform="translate(430,214) scale(0.92)" fill="#fbfaf8" stroke="none"/>
    </g>
    <g id="backDetail" fill="none" stroke="#fbfaf8" stroke-width="1.3" stroke-linecap="round">
      <path d="M356,332 Q430,322 504,332"/>
      <path d="M430,332 L430,512"/>
      <path d="M372,360 Q392,394 392,432"/>
      <path d="M488,360 Q468,394 468,432"/>
      <path d="M372,452 Q430,447 488,452"/>
      <path d="M398,506 L462,506"/>
      <path d="M337,402 L341,452 L341,510"/>
      <path d="M523,402 L519,452 L519,510"/>
      <path d="M404,300 Q430,308 456,300"/>
      <use href="#helmetSeam" transform="translate(430,214) scale(0.92)" stroke="#fbfaf8" stroke-width="1.0" stroke-opacity="0.5"/>
    </g>
  </defs>

  <rect width="1680" height="1040" fill="#fbfaf8"/>
  <rect x="20" y="20" width="1640" height="1000" fill="none" stroke="#1a1a22" stroke-width="1.5"/>

  <!-- header -->
  <text class="mono" x="44" y="50" font-size="12" letter-spacing="3" fill="#3a3a42">MIKAGE ZENITH STUDIO  ·  CHARACTER CAST LANE</text>
  <text class="mono" x="840" y="50" font-size="15" letter-spacing="5" text-anchor="middle" fill="#1a1a22">MIKAGE — MODEL SHEET BASE  V1.1</text>
  <text class="mono" x="1636" y="50" font-size="11" letter-spacing="2" text-anchor="end" fill="#b03a2e">DRAFT · NOT CANON · NOT ASSET-LOCKED · NO RENDER</text>
  <line x1="44" y1="66" x2="1636" y2="66" stroke="#1a1a22" stroke-width="0.8"/>
  <text class="mono" x="44" y="86" font-size="10.5" letter-spacing="2" fill="#6a6a74">V1.1 PATCH = SIDE (true depth) + 3/4 (true turn) ONLY · front/back/ruler unchanged · source of truth = V0.5 · faceless sealed porcelain shell · monochrome</text>

  <!-- shared head-unit guide lines -->
  <g class="mono" font-size="10" fill="#6a6a74">
    <g stroke="#e3e0d9" stroke-width="0.8">
      <line x1="120" y1="170" x2="1456" y2="170"/>
      <line x1="120" y1="260" x2="1456" y2="260"/>
      <line x1="120" y1="350" x2="1456" y2="350"/>
      <line x1="120" y1="440" x2="1456" y2="440"/>
      <line x1="120" y1="521" x2="1456" y2="521" stroke="#d2cfc7" stroke-dasharray="5 4"/>
      <line x1="120" y1="530" x2="1456" y2="530"/>
      <line x1="120" y1="620" x2="1456" y2="620"/>
      <line x1="120" y1="710" x2="1456" y2="710"/>
      <line x1="120" y1="800" x2="1456" y2="800"/>
      <line x1="120" y1="847" x2="1456" y2="847" stroke="#9a978f"/>
    </g>
    <line x1="96" y1="170" x2="96" y2="847" stroke="#9a978f" stroke-width="1"/>
    <g text-anchor="end" fill="#3a3a42">
      <text x="90" y="174">0.0</text><text x="90" y="264">1.0</text><text x="90" y="354">2.0</text>
      <text x="90" y="444">3.0</text><text x="90" y="534">4.0</text><text x="90" y="624">5.0</text>
      <text x="90" y="714">6.0</text><text x="90" y="804">7.0</text><text x="90" y="851">7.5</text>
    </g>
    <g fill="#9a9790" font-size="8.5">
      <text x="44" y="174">CROWN</text><text x="44" y="263">CHIN</text>
      <text x="44" y="519">HIP</text><text x="44" y="851">SOLE</text>
    </g>
    <text x="44" y="160" font-size="9" fill="#6a6a74">HEAD UNITS</text>
  </g>

  <!-- ===== 1 · FRONT (cx=330) — unchanged ===== -->
  <use href="#frontBody" transform="translate(-100,0)"/>
  <use href="#frontDetail" transform="translate(-100,0)"/>
  <text class="mono" x="330" y="892" font-size="12" letter-spacing="2" text-anchor="middle" fill="#1a1a22">1 · FRONT</text>
  <text class="mono" x="330" y="909" font-size="8.5" letter-spacing="1" text-anchor="middle" fill="#6a6a74">source of truth (V0.5)</text>

  <!-- ===== 2 · SIDE (cx=640) — rebuilt with depth ===== -->
  <g fill="#15151c">
    <!-- far leg sliver (depth) -->
    <polygon points="612,518 628,520 624,668 610,664"/>
    <!-- near leg -->
    <polygon points="620,516 672,520 666,668 628,672"/>
    <polygon points="630,680 664,676 658,816 638,818"/>
    <!-- boot: heel back, toe forward (+x), sole -->
    <path d="M636,814 L662,814 L664,830 L700,838 L700,848 L628,848 L628,830 Z"/>
    <!-- torso profile WITH DEPTH (chest/abdomen/hip shell) -->
    <path d="M612,300 C604,330 602,360 604,392 C606,430 608,470 610,500 C611,510 612,516 616,520 L686,521 C694,500 690,470 686,452 C698,430 700,408 694,388 C690,352 680,318 662,304 Z"/>
    <!-- gorget profile: connects helmet to chest -->
    <path d="M612,312 L614,280 L624,264 Q636,258 648,263 L666,276 L670,302 L660,318 Q636,324 616,318 Z"/>
    <!-- arm: deltoid + upper arm + elbow break + forearm + hand -->
    <path d="M650,312 L672,322 L676,360 L674,420 L678,430 L676,500 L670,540 L660,556 L650,554 L652,508 L650,432 L646,424 L648,360 L646,326 Z"/>
    <!-- helmet profile (deep faceted mask) -->
    <use href="#helmetProfile" transform="translate(640,214) scale(0.92)"/>
  </g>
  <g fill="none" stroke="#fbfaf8" stroke-width="1.3" stroke-linecap="round">
    <!-- helmet facet seams (brow + cheek plane) -->
    <path d="M650,196 L668,202"/>
    <path d="M644,250 L662,234"/>
    <!-- shell depth panels -->
    <path d="M652,392 Q678,400 694,388"/>
    <path d="M650,440 Q676,447 686,440"/>
    <path d="M650,478 Q674,483 682,478"/>
    <!-- arm plate seams -->
    <path d="M652,328 L674,334"/>
    <path d="M648,426 L678,428"/>
    <path d="M654,470 L674,470"/>
    <!-- gorget joint -->
    <path d="M616,312 Q644,318 666,306"/>
  </g>
  <text class="mono" x="650" y="892" font-size="12" letter-spacing="2" text-anchor="middle" fill="#1a1a22">2 · SIDE</text>
  <text class="mono" x="650" y="909" font-size="8.5" letter-spacing="1" text-anchor="middle" fill="#6a6a74">depth shell · faceted mask · arm break</text>

  <!-- ===== 3 · BACK (cx=950) — unchanged ===== -->
  <use href="#frontBody" transform="translate(520,0)"/>
  <use href="#backDetail" transform="translate(520,0)"/>
  <text class="mono" x="950" y="892" font-size="12" letter-spacing="2" text-anchor="middle" fill="#1a1a22">3 · BACK</text>
  <text class="mono" x="950" y="909" font-size="8.5" letter-spacing="1" text-anchor="middle" fill="#6a6a74">no slits · spine + scapula seams</text>

  <!-- ===== 4 · 3/4 (cx≈1258) — TRUE 3/4 construction ===== -->
  <g fill="#15151c">
    <!-- far leg (viewer-right), set back -->
    <polygon points="1268,520 1316,518 1320,668 1282,672"/>
    <polygon points="1282,680 1316,676 1322,816 1300,818"/>
    <path d="M1300,814 L1320,814 L1326,832 L1338,846 L1296,846 L1296,832 Z"/>
    <!-- far arm (viewer-right), partly behind torso -->
    <path d="M1316,350 L1326,374 L1328,416 L1326,456 L1320,512 L1314,548 L1306,558 L1300,552 L1304,510 L1306,456 L1308,410 L1308,366 Z"/>
    <!-- near leg (viewer-left), slightly forward -->
    <polygon points="1206,516 1256,520 1252,668 1214,672"/>
    <polygon points="1216,680 1250,676 1244,816 1224,818"/>
    <path d="M1214,814 L1248,814 L1250,832 L1238,846 L1206,846 L1204,832 Z"/>
    <!-- torso 3/4: near(left)=front plane full, far(right)=side plane receding -->
    <path d="M1244,300
             C1212,304 1196,320 1190,348
             C1194,392 1196,432 1196,470
             C1195,492 1198,506 1208,518
             L1268,521 L1316,516
             C1322,500 1322,476 1320,452
             C1322,414 1322,372 1320,348
             C1312,322 1296,306 1272,302 Z"/>
    <!-- gorget 3/4 -->
    <path d="M1216,316 L1222,278 L1238,260 Q1254,254 1270,260 L1288,278 L1294,316 L1276,326 Q1250,332 1226,326 Z"/>
    <!-- near arm (viewer-left), full, in front -->
    <path d="M1196,346 L1182,372 L1178,414 L1180,452 L1186,458 L1187,514 L1196,548 L1205,560 L1215,558 L1214,548 L1208,510 L1206,456 L1202,450 L1200,408 L1198,366 Z"/>
    <!-- helmet 3/4: front face plane (left) + side plane (right bulge) -->
    <path d="M1250,166
             C1232,167 1220,180 1216,202
             C1213,222 1216,240 1226,254
             C1234,264 1248,266 1258,262
             C1276,256 1290,240 1294,214
             C1297,194 1288,172 1268,167 Z"/>
  </g>
  <!-- 3/4 detail: foreshortened slits (front plane) + plane-break + seams -->
  <g fill="#fbfaf8" stroke="none">
    <rect x="1223" y="203" width="13" height="2.2"/>
    <rect x="1222" y="201" width="1.1" height="6"/>
    <rect x="1235.9" y="201" width="1.1" height="6"/>
    <rect x="1240" y="204" width="10" height="2"/>
    <rect x="1239" y="202.4" width="1" height="5"/>
    <rect x="1250" y="202.4" width="1" height="5"/>
  </g>
  <g fill="none" stroke="#fbfaf8" stroke-width="1.2" stroke-linecap="round">
    <!-- face center ridge (shifted left) + brow + plane break (front|side) -->
    <path d="M1240,172 C1236,200 1238,230 1244,256" stroke-opacity="0.45"/>
    <path d="M1219,200 Q1240,195 1261,206" stroke-opacity="0.45"/>
    <path d="M1262,180 C1266,210 1262,238 1256,258" stroke-width="1.3"/>
    <!-- torso seams reflecting the turn -->
    <path d="M1196,332 Q1256,318 1316,336"/>
    <path d="M1198,400 Q1250,416 1312,396"/>
    <path d="M1244,360 L1244,452"/>
    <path d="M1202,444 Q1252,450 1310,442"/>
    <path d="M1206,480 Q1252,485 1304,478"/>
    <path d="M1224,506 L1294,506"/>
    <!-- front|side plane-break seam down the torso (far-right) -->
    <path d="M1300,348 C1306,420 1304,480 1300,514" stroke-width="1.3"/>
    <!-- near arm plate seams -->
    <path d="M1188,400 L1192,452 L1192,510"/>
    <!-- gorget joint -->
    <path d="M1226,316 Q1252,322 1276,312"/>
  </g>
  <text class="mono" x="1256" y="892" font-size="12" letter-spacing="2" text-anchor="middle" fill="#1a1a22">4 · 3/4</text>
  <text class="mono" x="1256" y="909" font-size="8.5" letter-spacing="1" text-anchor="middle" fill="#6a6a74">true turn · front+side plane · 2 slits</text>

  <!-- status / notes -->
  <g class="mono">
    <line x1="44" y1="936" x2="1636" y2="936" stroke="#1a1a22" stroke-width="0.6"/>
    <text x="44" y="956" font-size="9.5" letter-spacing="1" fill="#3a3a42">WORKING BLOCK: 7.5 HEADS · HEAVY/MONOLITH CALM · SEGMENTED SEALED PORCELAIN SHELL (not human mannequin, not robot armor, not mascot blob) — PROPOSED / UNCONFIRMED vs MASTER CANON</text>
    <text x="44" y="972" font-size="9.5" letter-spacing="1" fill="#6a6a74">CHUA_XAC_NHAN: side + 3/4 now constructed (not front-derived) but still NOT operator-approved · proportions/depth unconfirmed · hands/feet schematic.   DRAFT · NOT CANON · NOT ASSET-LOCKED · NO RENDER.</text>
  </g>
</svg>
