<svg xmlns="http://www.w3.org/2000/svg" viewBox="0 0 1200 1040" width="1200" height="1040" font-family="ui-monospace,'Space Mono',monospace">
  <rect width="1200" height="1040" fill="#fbfaf8"/>
  <rect x="20" y="20" width="1160" height="1000" fill="none" stroke="#1a1a22" stroke-width="1.5"/>
  <text x="44" y="50" font-size="13" letter-spacing="3" fill="#1a1a22">MIKAGE — OUTFIT BREAKDOWN (TÁCH LỚP) · IDENTITY LOCK PACK V0.1</text>
  <text x="1156" y="50" font-size="10.5" letter-spacing="2" text-anchor="end" fill="#b03a2e">DRAFT · NOT CANON · NOT ASSET-LOCKED · NO RENDER</text>
  <line x1="44" y1="64" x2="1156" y2="64" stroke="#1a1a22" stroke-width="0.8"/>
  <text x="44" y="84" font-size="10" fill="#6a6a74">Geometry trích nguyên từ 4-view V2.2 REV-C (OPERATOR_VISUAL_PASS). Mỗi ô = 1 lớp, tô đúng material tone. Zenith Blade KHÔNG thuộc body sheet (PRIMETOOL_INTERPRETATION 06-03).</text>

  <!-- grid 4x2 cells, cell 270x380 -->
  <g font-size="10" fill="#1a1a22">
    <!-- 1 HELMET -->
    <rect x="50" y="110" width="268" height="396" fill="#f7f5f1" stroke="#c9c6c0"/>
    <g transform="translate(184,260) scale(1.7)">
      <path d="M0,-52 L20,-44 L34,-22 L33,2 L24,24 L12,42 L0,52 L-12,42 L-24,24 L-33,2 L-34,-22 L-20,-44 Z" fill="#fafafa" stroke="#b8b4ad" stroke-width="0.6"/>
      <g fill="none" stroke="#8F00FF" stroke-width="2.4" stroke-linecap="round" opacity="0.45"><path d="M-17,-5 L-5,-2.5"/><path d="M17,-5 L5,-2.5"/></g>
      <g fill="none" stroke="#26262c" stroke-width="1.1" stroke-linecap="round"><path d="M-17,-5 L-5,-2.5"/><path d="M17,-5 L5,-2.5"/></g>
    </g>
    <text x="184" y="470" text-anchor="middle" letter-spacing="2">1 · HELMET — B4C #FAFAFA</text>
    <text x="184" y="488" text-anchor="middle" font-size="8.5" fill="#6a6a74">Kitsune planar · 2 khe sealed 0.7" · matte</text>

    <!-- 2 HAIR -->
    <rect x="330" y="110" width="268" height="396" fill="#f7f5f1" stroke="#c9c6c0"/>
    <g transform="translate(464,300) translate(-430,-430) scale(0.74) translate(150,120)">
      <path d="M410,200 C368,206 342,250 332,332 C325,430 332,572 360,706 L398,692 C384,560 380,428 388,344 C394,284 412,228 422,206 Z" fill="#0d0d12"/>
      <path d="M450,200 C492,206 518,250 528,332 C535,430 528,572 500,706 L462,692 C476,560 480,428 472,344 C466,284 448,228 438,206 Z" fill="#0d0d12"/>
      <path d="M402,190 Q430,178 458,190 L454,250 Q430,240 406,250 Z" fill="#0d0d12"/>
    </g>
    <text x="464" y="470" text-anchor="middle" letter-spacing="2">2 · HAIR — đen #0d0d12</text>
    <text x="464" y="488" text-anchor="middle" font-size="8.5" fill="#6a6a74">dài nặng, rơi thẳng, đuôi quá hông · BACK: tách 2 dải quanh spine corridor</text>

    <!-- 3 COLLAR + COAT TORSO -->
    <rect x="610" y="110" width="268" height="396" fill="#f7f5f1" stroke="#c9c6c0"/>
    <g transform="translate(744,300) translate(-430,-420) scale(0.78) translate(120,100)">
      <path d="M398,308 L392,262 L410,248 Q430,242 450,248 L468,262 L462,308 Z" fill="#16161c"/>
      <path d="M348,308 L356,360 L366,450 L362,500 L372,520 L488,520 L498,500 L494,450 L504,360 L512,308 Z" fill="#16161c"/>
      <path d="M348,310 L334,360 L330,452 L338,545 L360,548 L362,452 L360,360 L356,314 Z" fill="#16161c"/>
      <path d="M512,310 L526,360 L530,452 L522,545 L500,548 L498,452 L500,360 L504,314 Z" fill="#16161c"/>
    </g>
    <text x="744" y="470" text-anchor="middle" letter-spacing="2">3 · HIGH COLLAR + COAT TORSO + SLEEVES</text>
    <text x="744" y="488" text-anchor="middle" font-size="8.5" fill="#6a6a74">executor coat #16161c · cổ cao ôm mask · seam giữa kín</text>

    <!-- 4 CHEST PLATE + PAULDRONS -->
    <rect x="890" y="110" width="268" height="396" fill="#f7f5f1" stroke="#c9c6c0"/>
    <g transform="translate(1024,290) translate(-430,-360) scale(0.9) translate(50,30)">
      <path d="M392,330 L468,330 L472,392 Q430,408 388,392 Z" fill="#fafafa" stroke="#cbc7c0"/>
      <path d="M340,306 C326,316 322,338 332,352 L362,346 L360,310 Z" fill="#fafafa" stroke="#cbc7c0"/>
      <path d="M520,306 C534,316 538,338 528,352 L498,346 L500,310 Z" fill="#fafafa" stroke="#cbc7c0"/>
    </g>
    <text x="1024" y="470" text-anchor="middle" letter-spacing="2">4 · CHEST PLATE + 2 PAULDRON</text>
    <text x="1024" y="488" text-anchor="middle" font-size="8.5" fill="#6a6a74">sứ #FAFAFA trên coat · seam ngang ngực</text>

    <!-- 5 SKIRT 3 TIERS -->
    <rect x="50" y="530" width="268" height="396" fill="#f7f5f1" stroke="#c9c6c0"/>
    <g transform="translate(184,700) translate(-430,-630) scale(0.66) translate(120,30)">
      <path d="M372,520 L362,664 L366,724 L494,724 L498,664 L488,520 Z" fill="#16161c"/>
      <path d="M362,648 L353,768 L357,794 L390,794 L392,768 L390,648 Z" fill="#1d1d25"/>
      <path d="M498,648 L507,768 L503,794 L470,794 L468,768 L470,648 Z" fill="#1d1d25"/>
      <g fill="none"><path d="M398,534 L400,720" stroke="#08080c" stroke-width="3"/><path d="M430,532 L430,722" stroke="#08080c" stroke-width="3"/><path d="M462,534 L460,720" stroke="#08080c" stroke-width="3"/></g>
    </g>
    <text x="184" y="890" text-anchor="middle" letter-spacing="2">5 · SKIRT — 3 TẦNG CHỐT 06-10 (sacred flow)</text>
    <text x="184" y="908" text-anchor="middle" font-size="8.5" fill="#6a6a74">ngoài→mắt cá · giữa→giữa ống chân · trong→gối · khe #08080c</text>

    <!-- 6 GRAPHENE JOINTS + HANDS -->
    <rect x="330" y="530" width="268" height="396" fill="#f7f5f1" stroke="#c9c6c0"/>
    <g transform="translate(464,680)">
      <rect x="-60" y="-60" width="44" height="13" rx="5" fill="#24242b"/>
      <path d="M-62,-44 L-18,-44 L-18,-6 Q-40,4 -62,-6 Z" fill="#fafafa" stroke="#cbc7c0"/>
      <rect x="16" y="-60" width="44" height="13" rx="5" fill="#24242b"/>
      <path d="M14,-44 L58,-44 L58,-6 Q36,4 14,-6 Z" fill="#fafafa" stroke="#cbc7c0"/>
      <path d="M-50,-30 L-30,-30 M26,-30 L46,-30" stroke="#cbc7c0" stroke-width="1" fill="none"/>
    </g>
    <text x="464" y="890" text-anchor="middle" letter-spacing="2">6 · GRAPHENE WRIST #24242b + MITTEN HANDS</text>
    <text x="464" y="908" text-anchor="middle" font-size="8.5" fill="#6a6a74">găng sứ liền khối — KHÔNG ngón, KHÔNG móng, KHÔNG da</text>

    <!-- 7 SHINS + BOOTS -->
    <rect x="610" y="530" width="268" height="396" fill="#f7f5f1" stroke="#c9c6c0"/>
    <g transform="translate(744,690) scale(1.15) translate(-430,-780)">
      <rect x="396" y="708" width="68" height="10" rx="4" fill="#24242b"/>
      <polygon points="406,720 424,720 421,812 408,812" fill="#fafafa" stroke="#cbc7c0"/>
      <polygon points="454,720 436,720 439,812 452,812" fill="#fafafa" stroke="#cbc7c0"/>
      <path d="M402,808 L424,808 L426,830 L432,845 L396,845 L396,828 Z" fill="#16161c"/>
      <path d="M458,808 L436,808 L434,830 L428,845 L464,845 L464,828 Z" fill="#16161c"/>
    </g>
    <text x="744" y="890" text-anchor="middle" letter-spacing="2">7 · GRAPHENE ANKLE + SHIN SỨ + BOOTS</text>
    <text x="744" y="908" text-anchor="middle" font-size="8.5" fill="#6a6a74">boot kín nặng, đế seam — KHÔNG gót cao, KHÔNG sneaker</text>

    <!-- 8 NOTE WEAPON -->
    <rect x="890" y="530" width="268" height="396" fill="#f4f2ee" stroke="#c9c6c0"/>
    <text x="1024" y="660" text-anchor="middle" letter-spacing="2" font-size="11">8 · ZENITH BLADE</text>
    <text x="1024" y="690" text-anchor="middle" font-size="9" fill="#6a6a74">KHÔNG thuộc body sheet</text>
    <text x="1024" y="708" text-anchor="middle" font-size="9" fill="#6a6a74">(PRIMETOOL riêng — BLADE_SPEC_V1 🔒)</text>
    <text x="1024" y="740" text-anchor="middle" font-size="9" fill="#6a6a74">Khi render cùng Mikage:</text>
    <text x="1024" y="758" text-anchor="middle" font-size="9" fill="#6a6a74">flux-pinned sau lưng (P1 Compact-Idle)</text>
    <text x="1024" y="776" text-anchor="middle" font-size="9" fill="#6a6a74">ref = anchor A3 SHOT_03 LOCKED</text>
  </g>
  <text x="44" y="966" font-size="9.5" fill="#6a6a74">THỨ TỰ LỚP (trong→ngoài): graphene underlayer → shell sứ (shin/hand/chest/pauldron/helmet) → coat+collar → skirt tiers → hair (sau cùng, sau lưng). CHUA_XAC_NHAN: segmentation găng · sole boot · lining coat.</text>
  <text x="44" y="986" font-size="9.5" fill="#b03a2e">CANON_LOCK = NO · ASSET_LOCK = NO · RENDER_ALLOWED = NO — thuộc IDENTITY_LOCK_PACK_V0_1, chờ owner review.</text>
</svg>
